# xmcd CD database file
#
# Track frame offsets:
#	150
#	18707
#	37576
#	57588
#	71356
#	88501
#	110670
#	128076
#	143683
#	163182
#	186476
#	200489
#	215626
#	234384
#	252654
#
# Disc length: 3568 seconds
#
# Revision: 0
# Processed by: cddbd v1.5.1PL2 Copyright (c) Steve Scherf et al.
# Submitted via: CDex 1.51
#
DISCID=de0dee0f
DTITLE=Scott Foster - Scott Foster
DYEAR=1900
DGENRE=Country
TTITLE0=Life On The Run
TTITLE1=Day Time Wanted Man
TTITLE2=Beaver Creek Bottom Justice
TTITLE3=To Kill The Pain
TTITLE4=If She Is The Devil
TTITLE5=You Can Lean On Me
TTITLE6=The Place That Kicks (When The Sun Goes Down)
TTITLE7=Outlaws And Their Guitars
TTITLE8=The Hobo Song
TTITLE9=Rodeo Man
TTITLE10=Come Again
TTITLE11=The Way That I'll Always Be
TTITLE12=Blessed By Mother Nature (Cursed By Father Time)
TTITLE13=Reality Really Hurts
TTITLE14=Long After I'm Gone
EXTD=
EXTT0=
EXTT1=
EXTT2=
EXTT3=
EXTT4=
EXTT5=
EXTT6=
EXTT7=
EXTT8=
EXTT9=
EXTT10=
EXTT11=
EXTT12=
EXTT13=
EXTT14=
PLAYORDER=
